# xmcd
# 
# Track frame offsets:
#     150
#     19018
#     37989
#     60481
#     81452
#     101770
#     119676
#     140999
#     154760
#     178564
#     201154
#     217136
# 
# Disc length: 3168
# 
# Revision: 0
# Processed by: cddbd v1.5.2PL0 Copyright (c) Steve Scherf et al.
# Submitted via: fre:ac v1.0.17
# 
DISCID=b20c5e0c
DTITLE=Wrinkle Kneck Mules - Apprentice to Ghosts
DYEAR=2012
DGENRE=Country
TTITLE0=When the Wheels Touch Down
TTITLE1=Stone Above Your Head
TTITLE2=On Wounded Knee
TTITLE3=Apprentice to Ghosts
TTITLE4=Patience in the Shadows
TTITLE5=Double Blade
TTITLE6=Parting the Clouds
TTITLE7=Leaving Chattanooga
TTITLE8=Liberty Bell
TTITLE9=Banks of the James
TTITLE10=Central Daylight Time
TTITLE11=Dry Your Eyes
EXTD=
EXTT0=
EXTT1=
EXTT2=
EXTT3=
EXTT4=
EXTT5=
EXTT6=
EXTT7=
EXTT8=
EXTT9=
EXTT10=
EXTT11=
PLAYORDER=
